<?xml version="1.0" encoding="UTF-8" standalone="no"?>
<!DOCTYPE svg PUBLIC "-//W3C//DTD SVG 1.1//EN"
 "http://www.w3.org/Graphics/SVG/1.1/DTD/svg11.dtd">
<!-- Generated by graphviz version 2.40.1 (20161225.0304)
 -->
<!-- Title: G Pages: 1 -->
<svg width="500pt" height="448pt"
 viewBox="0.00 0.00 500.02 448.00" xmlns="http://www.w3.org/2000/svg" xmlns:xlink="http://www.w3.org/1999/xlink">
<g id="graph0" class="graph" transform="scale(1 1) rotate(0) translate(4 444)">
<title>G</title>
<polygon fill="#ffffff" stroke="transparent" points="-4,4 -4,-444 496.0235,-444 496.0235,4 -4,4"/>
<!-- A0 -->
<g id="node1" class="node">
<title>A0</title>
<polygon fill="none" stroke="#000000" points="351.0098,-368 274.5712,-368 270.5712,-364 270.5712,-332 347.0098,-332 351.0098,-336 351.0098,-368"/>
<polyline fill="none" stroke="#000000" points="347.0098,-364 270.5712,-364 "/>
<polyline fill="none" stroke="#000000" points="347.0098,-364 347.0098,-332 "/>
<polyline fill="none" stroke="#000000" points="347.0098,-364 351.0098,-368 "/>
<text text-anchor="middle" x="310.7905" y="-347" font-family="Helvetica,sans-Serif" font-size="10.00" fill="#000000">Arrival Data</text>
</g>
<!-- A1 -->
<g id="node2" class="node">
<title>A1</title>
<polygon fill="none" stroke="#000000" points="392.7352,-296 338.8458,-296 334.8458,-292 334.8458,-260 388.7352,-260 392.7352,-264 392.7352,-296"/>
<polyline fill="none" stroke="#000000" points="388.7352,-292 334.8458,-292 "/>
<polyline fill="none" stroke="#000000" points="388.7352,-292 388.7352,-260 "/>
<polyline fill="none" stroke="#000000" points="388.7352,-292 392.7352,-296 "/>
<text text-anchor="middle" x="363.7905" y="-275" font-family="Helvetica,sans-Serif" font-size="10.00" fill="#000000">Airport</text>
</g>
<!-- A0&#45;&gt;A1 -->
<g id="edge1" class="edge">
<title>A0&#45;&gt;A1</title>
<path fill="none" stroke="#000000" d="M324.1646,-331.8314C332.1377,-321 342.2316,-307.2876 350.2363,-296.4133"/>
</g>
<!-- A3 -->
<g id="node4" class="node">
<title>A3</title>
<polygon fill="none" stroke="#000000" points="415.954,-224 315.627,-224 311.627,-220 311.627,-188 411.954,-188 415.954,-192 415.954,-224"/>
<polyline fill="none" stroke="#000000" points="411.954,-220 311.627,-220 "/>
<polyline fill="none" stroke="#000000" points="411.954,-220 411.954,-188 "/>
<polyline fill="none" stroke="#000000" points="411.954,-220 415.954,-224 "/>
<text text-anchor="middle" x="363.7905" y="-203" font-family="Helvetica,sans-Serif" font-size="10.00" fill="#000000">Api (FlightAware)</text>
</g>
<!-- A1&#45;&gt;A3 -->
<g id="edge3" class="edge">
<title>A1&#45;&gt;A3</title>
<path fill="none" stroke="#000000" d="M363.7905,-259.8314C363.7905,-249 363.7905,-235.2876 363.7905,-224.4133"/>
</g>
<!-- A2 -->
<g id="node3" class="node">
<title>A2</title>
<polygon fill="none" stroke="#000000" points="465.1371,-368 372.4439,-368 368.4439,-364 368.4439,-332 461.1371,-332 465.1371,-336 465.1371,-368"/>
<polyline fill="none" stroke="#000000" points="461.1371,-364 368.4439,-364 "/>
<polyline fill="none" stroke="#000000" points="461.1371,-364 461.1371,-332 "/>
<polyline fill="none" stroke="#000000" points="461.1371,-364 465.1371,-368 "/>
<text text-anchor="middle" x="416.7905" y="-347" font-family="Helvetica,sans-Serif" font-size="10.00" fill="#000000">Departure Data</text>
</g>
<!-- A2&#45;&gt;A1 -->
<g id="edge2" class="edge">
<title>A2&#45;&gt;A1</title>
<path fill="none" stroke="#000000" d="M403.4164,-331.8314C395.4433,-321 385.3494,-307.2876 377.3447,-296.4133"/>
</g>
<!-- A5 -->
<g id="node6" class="node">
<title>A5</title>
<polygon fill="none" stroke="#000000" points="354.2945,-152 285.2865,-152 281.2865,-148 281.2865,-116 350.2945,-116 354.2945,-120 354.2945,-152"/>
<polyline fill="none" stroke="#000000" points="350.2945,-148 281.2865,-148 "/>
<polyline fill="none" stroke="#000000" points="350.2945,-148 350.2945,-116 "/>
<polyline fill="none" stroke="#000000" points="350.2945,-148 354.2945,-152 "/>
<text text-anchor="middle" x="317.7905" y="-131" font-family="Helvetica,sans-Serif" font-size="10.00" fill="#000000">Processor</text>
</g>
<!-- A3&#45;&gt;A5 -->
<g id="edge6" class="edge">
<title>A3&#45;&gt;A5</title>
<path fill="none" stroke="#000000" d="M352.1828,-187.8314C345.2627,-177 336.502,-163.2876 329.5545,-152.4133"/>
</g>
<!-- A4 -->
<g id="node5" class="node">
<title>A4</title>
<polygon fill="none" stroke="#000000" points="395.2945,-440 336.2865,-440 332.2865,-436 332.2865,-404 391.2945,-404 395.2945,-408 395.2945,-440"/>
<polyline fill="none" stroke="#000000" points="391.2945,-436 332.2865,-436 "/>
<polyline fill="none" stroke="#000000" points="391.2945,-436 391.2945,-404 "/>
<polyline fill="none" stroke="#000000" points="391.2945,-436 395.2945,-440 "/>
<text text-anchor="middle" x="363.7905" y="-419" font-family="Helvetica,sans-Serif" font-size="10.00" fill="#000000">Country</text>
</g>
<!-- A4&#45;&gt;A0 -->
<g id="edge5" class="edge">
<title>A4&#45;&gt;A0</title>
<path fill="none" stroke="#000000" d="M350.4164,-403.8314C342.4433,-393 332.3494,-379.2876 324.3447,-368.4133"/>
</g>
<!-- A4&#45;&gt;A2 -->
<g id="edge4" class="edge">
<title>A4&#45;&gt;A2</title>
<path fill="none" stroke="#000000" d="M377.1646,-403.8314C385.1377,-393 395.2316,-379.2876 403.2363,-368.4133"/>
</g>
<!-- A8 -->
<g id="node9" class="node">
<title>A8</title>
<polygon fill="#fff8dc" stroke="#000000" points="240.2645,-68 133.3165,-68 133.3165,-12 246.2645,-12 246.2645,-62 240.2645,-68"/>
<polyline fill="none" stroke="#000000" points="240.2645,-68 240.2645,-62 "/>
<polyline fill="none" stroke="#000000" points="246.2645,-62 240.2645,-62 "/>
<text text-anchor="middle" x="189.7905" y="-55" font-family="Helvetica,sans-Serif" font-size="10.00" fill="#000000">Functions which</text>
<text text-anchor="middle" x="189.7905" y="-43" font-family="Helvetica,sans-Serif" font-size="10.00" fill="#000000">calculate and other</text>
<text text-anchor="middle" x="189.7905" y="-31" font-family="Helvetica,sans-Serif" font-size="10.00" fill="#000000">things using</text>
<text text-anchor="middle" x="189.7905" y="-19" font-family="Helvetica,sans-Serif" font-size="10.00" fill="#000000">language libary</text>
</g>
<!-- A5&#45;&gt;A8 -->
<g id="edge9" class="edge">
<title>A5&#45;&gt;A8</title>
<path fill="none" stroke="#000000" stroke-dasharray="5,2" d="M293.1108,-115.8759C274.6585,-102.3249 249.0862,-83.5453 227.9997,-68.0599"/>
</g>
<!-- A9 -->
<g id="node10" class="node">
<title>A9</title>
<polygon fill="none" stroke="#000000" points="371.8265,-58 267.7545,-58 263.7545,-54 263.7545,-22 367.8265,-22 371.8265,-26 371.8265,-58"/>
<polyline fill="none" stroke="#000000" points="367.8265,-54 263.7545,-54 "/>
<polyline fill="none" stroke="#000000" points="367.8265,-54 367.8265,-22 "/>
<polyline fill="none" stroke="#000000" points="367.8265,-54 371.8265,-58 "/>
<text text-anchor="middle" x="317.7905" y="-43" font-family="Helvetica,sans-Serif" font-size="10.00" fill="#000000">Language/country</text>
<text text-anchor="middle" x="317.7905" y="-31" font-family="Helvetica,sans-Serif" font-size="10.00" fill="#000000">(libary)</text>
</g>
<!-- A5&#45;&gt;A9 -->
<g id="edge10" class="edge">
<title>A5&#45;&gt;A9</title>
<path fill="none" stroke="#000000" d="M317.7905,-115.8759C317.7905,-99.2306 317.7905,-74.6962 317.7905,-58.0685"/>
</g>
<!-- A10 -->
<g id="node11" class="node">
<title>A10</title>
<polygon fill="#fff8dc" stroke="#000000" points="486.2576,-80 389.3234,-80 389.3234,0 492.2576,0 492.2576,-74 486.2576,-80"/>
<polyline fill="none" stroke="#000000" points="486.2576,-80 486.2576,-74 "/>
<polyline fill="none" stroke="#000000" points="492.2576,-74 486.2576,-74 "/>
<text text-anchor="middle" x="440.7905" y="-67" font-family="Helvetica,sans-Serif" font-size="10.00" fill="#000000">Create Table for</text>
<text text-anchor="middle" x="440.7905" y="-55" font-family="Helvetica,sans-Serif" font-size="10.00" fill="#000000">each language</text>
<text text-anchor="middle" x="440.7905" y="-43" font-family="Helvetica,sans-Serif" font-size="10.00" fill="#000000">corresponding to</text>
<text text-anchor="middle" x="440.7905" y="-31" font-family="Helvetica,sans-Serif" font-size="10.00" fill="#000000">their time of</text>
<text text-anchor="middle" x="440.7905" y="-19" font-family="Helvetica,sans-Serif" font-size="10.00" fill="#000000">arrival which will</text>
<text text-anchor="middle" x="440.7905" y="-7" font-family="Helvetica,sans-Serif" font-size="10.00" fill="#000000">then be cached</text>
</g>
<!-- A5&#45;&gt;A10 -->
<g id="edge11" class="edge">
<title>A5&#45;&gt;A10</title>
<path fill="none" stroke="#000000" stroke-dasharray="5,2" d="M341.5061,-115.8759C355.119,-105.4726 372.7642,-91.9876 389.3957,-79.2773"/>
</g>
<!-- A6 -->
<g id="node7" class="node">
<title>A6</title>
<polygon fill="none" stroke="#000000" points="188.1866,-224 135.3944,-224 131.3944,-220 131.3944,-188 184.1866,-188 188.1866,-192 188.1866,-224"/>
<polyline fill="none" stroke="#000000" points="184.1866,-220 131.3944,-220 "/>
<polyline fill="none" stroke="#000000" points="184.1866,-220 184.1866,-188 "/>
<polyline fill="none" stroke="#000000" points="184.1866,-220 188.1866,-224 "/>
<text text-anchor="middle" x="159.7905" y="-203" font-family="Helvetica,sans-Serif" font-size="10.00" fill="#000000">Cache</text>
</g>
<!-- A6&#45;&gt;A5 -->
<g id="edge7" class="edge">
<title>A6&#45;&gt;A5</title>
<path fill="none" stroke="#000000" d="M188.3963,-192.3767C191.5619,-190.8909 194.7419,-189.4078 197.7905,-188 225.6869,-175.1177 257.3946,-160.866 281.2082,-150.2398"/>
</g>
<!-- A7 -->
<g id="node8" class="node">
<title>A7</title>
<polygon fill="#fff8dc" stroke="#000000" points="211.6056,-152 101.9754,-152 101.9754,-116 217.6056,-116 217.6056,-146 211.6056,-152"/>
<polyline fill="none" stroke="#000000" points="211.6056,-152 211.6056,-146 "/>
<polyline fill="none" stroke="#000000" points="217.6056,-146 211.6056,-146 "/>
<text text-anchor="middle" x="159.7905" y="-137" font-family="Helvetica,sans-Serif" font-size="10.00" fill="#000000">To preserve calls</text>
<text text-anchor="middle" x="159.7905" y="-125" font-family="Helvetica,sans-Serif" font-size="10.00" fill="#000000">and processed data</text>
</g>
<!-- A6&#45;&gt;A7 -->
<g id="edge8" class="edge">
<title>A6&#45;&gt;A7</title>
<path fill="none" stroke="#000000" stroke-dasharray="5,2" d="M159.7905,-187.8314C159.7905,-177 159.7905,-163.2876 159.7905,-152.4133"/>
</g>
<!-- A11 -->
<g id="node12" class="node">
<title>A11</title>
<polygon fill="none" stroke="#000000" points="146.745,-296 82.836,-296 78.836,-292 78.836,-260 142.745,-260 146.745,-264 146.745,-296"/>
<polyline fill="none" stroke="#000000" points="142.745,-292 78.836,-292 "/>
<polyline fill="none" stroke="#000000" points="142.745,-292 142.745,-260 "/>
<polyline fill="none" stroke="#000000" points="142.745,-292 146.745,-296 "/>
<text text-anchor="middle" x="112.7905" y="-275" font-family="Helvetica,sans-Serif" font-size="10.00" fill="#000000">Rest API</text>
</g>
<!-- A11&#45;&gt;A6 -->
<g id="edge12" class="edge">
<title>A11&#45;&gt;A6</title>
<path fill="none" stroke="#000000" d="M124.6506,-259.8314C131.721,-249 140.6722,-235.2876 147.7707,-224.4133"/>
</g>
<!-- A14 -->
<g id="node15" class="node">
<title>A14</title>
<polygon fill="#fff8dc" stroke="#000000" points="107.3723,-224 .2087,-224 .2087,-188 113.3723,-188 113.3723,-218 107.3723,-224"/>
<polyline fill="none" stroke="#000000" points="107.3723,-224 107.3723,-218 "/>
<polyline fill="none" stroke="#000000" points="113.3723,-218 107.3723,-218 "/>
<text text-anchor="middle" x="56.7905" y="-209" font-family="Helvetica,sans-Serif" font-size="10.00" fill="#000000">Current state of the</text>
<text text-anchor="middle" x="56.7905" y="-197" font-family="Helvetica,sans-Serif" font-size="10.00" fill="#000000">API</text>
</g>
<!-- A11&#45;&gt;A14 -->
<g id="edge16" class="edge">
<title>A11&#45;&gt;A14</title>
<path fill="none" stroke="#000000" stroke-dasharray="5,2" d="M98.6593,-259.8314C90.235,-249 79.5697,-235.2876 71.1119,-224.4133"/>
</g>
<!-- A12 -->
<g id="node13" class="node">
<title>A12</title>
<polygon fill="none" stroke="#000000" points="195.3637,-368 126.2173,-368 122.2173,-364 122.2173,-332 191.3637,-332 195.3637,-336 195.3637,-368"/>
<polyline fill="none" stroke="#000000" points="191.3637,-364 122.2173,-364 "/>
<polyline fill="none" stroke="#000000" points="191.3637,-364 191.3637,-332 "/>
<polyline fill="none" stroke="#000000" points="191.3637,-364 195.3637,-368 "/>
<text text-anchor="middle" x="158.7905" y="-347" font-family="Helvetica,sans-Serif" font-size="10.00" fill="#000000">Web page</text>
</g>
<!-- A12&#45;&gt;A11 -->
<g id="edge13" class="edge">
<title>A12&#45;&gt;A11</title>
<path fill="none" stroke="#000000" d="M147.1828,-331.8314C140.2627,-321 131.502,-307.2876 124.5545,-296.4133"/>
</g>
<!-- A13 -->
<g id="node14" class="node">
<title>A13</title>
<polygon fill="none" stroke="#000000" points="245.0238,-296 168.5572,-296 164.5572,-292 164.5572,-260 241.0238,-260 245.0238,-264 245.0238,-296"/>
<polyline fill="none" stroke="#000000" points="241.0238,-292 164.5572,-292 "/>
<polyline fill="none" stroke="#000000" points="241.0238,-292 241.0238,-260 "/>
<polyline fill="none" stroke="#000000" points="241.0238,-292 245.0238,-296 "/>
<text text-anchor="middle" x="204.7905" y="-275" font-family="Helvetica,sans-Serif" font-size="10.00" fill="#000000">Web socket</text>
</g>
<!-- A12&#45;&gt;A13 -->
<g id="edge15" class="edge">
<title>A12&#45;&gt;A13</title>
<path fill="none" stroke="#000000" d="M170.3982,-331.8314C177.3183,-321 186.079,-307.2876 193.0265,-296.4133"/>
</g>
<!-- A13&#45;&gt;A6 -->
<g id="edge14" class="edge">
<title>A13&#45;&gt;A6</title>
<path fill="none" stroke="#000000" d="M193.4351,-259.8314C186.6655,-249 178.0952,-235.2876 171.2988,-224.4133"/>
</g>
<!-- A15 -->
<g id="node16" class="node">
<title>A15</title>
<polygon fill="#fff8dc" stroke="#000000" points="287.1492,-224 206.4318,-224 206.4318,-188 293.1492,-188 293.1492,-218 287.1492,-224"/>
<polyline fill="none" stroke="#000000" points="287.1492,-224 287.1492,-218 "/>
<polyline fill="none" stroke="#000000" points="293.1492,-218 287.1492,-218 "/>
<text text-anchor="middle" x="249.7905" y="-209" font-family="Helvetica,sans-Serif" font-size="10.00" fill="#000000">Feed of state</text>
<text text-anchor="middle" x="249.7905" y="-197" font-family="Helvetica,sans-Serif" font-size="10.00" fill="#000000">changes</text>
</g>
<!-- A13&#45;&gt;A15 -->
<g id="edge17" class="edge">
<title>A13&#45;&gt;A15</title>
<path fill="none" stroke="#000000" stroke-dasharray="5,2" d="M216.1459,-259.8314C222.9155,-249 231.4858,-235.2876 238.2822,-224.4133"/>
</g>
</g>
</svg>
