<?xml version="1.0" encoding="UTF-8" standalone="no"?>
<!DOCTYPE svg PUBLIC "-//W3C//DTD SVG 1.1//EN"
 "http://www.w3.org/Graphics/SVG/1.1/DTD/svg11.dtd">
<!-- Generated by graphviz version 2.40.1 (20161225.0304)
 -->
<!-- Title: G Pages: 1 -->
<svg width="525pt" height="904pt"
 viewBox="0.00 0.00 524.74 904.00" xmlns="http://www.w3.org/2000/svg" xmlns:xlink="http://www.w3.org/1999/xlink">
<g id="graph0" class="graph" transform="scale(1 1) rotate(0) translate(4 900)">
<title>G</title>
<polygon fill="#ffffff" stroke="transparent" points="-4,4 -4,-900 520.739,-900 520.739,4 -4,4"/>
<!-- A0 -->
<g id="node1" class="node">
<title>A0</title>
<polygon fill="#ff00ff" stroke="#000000" points="289.4574,-724 181.3476,-724 181.3476,-688 289.4574,-688 289.4574,-724"/>
<text text-anchor="middle" x="235.4025" y="-703" font-family="Helvetica,sans-Serif" font-size="10.00" fill="#000000">Arrival/Departures</text>
</g>
<!-- A1 -->
<g id="node2" class="node">
<title>A1</title>
<polygon fill="#4b0082" stroke="#000000" points="100.7077,-552 .0973,-552 .0973,-516 100.7077,-516 100.7077,-552"/>
<text text-anchor="middle" x="50.4025" y="-531" font-family="Helvetica,sans-Serif" font-size="10.00" fill="#ffffff">Gate destination</text>
</g>
<!-- A0&#45;&gt;A1 -->
<g id="edge1" class="edge">
<title>A0&#45;&gt;A1</title>
<path fill="none" stroke="#000000" d="M194.0989,-687.937C170.1552,-676.0958 140.4743,-658.9404 118.4025,-638 94.9863,-615.7841 75.713,-584.0101 63.7389,-561.4401"/>
<polygon fill="#000000" stroke="#000000" points="59.0633,-552.3854 67.6499,-559.206 61.3574,-556.828 63.6515,-561.2707 63.6515,-561.2707 63.6515,-561.2707 61.3574,-556.828 59.6531,-563.3354 59.0633,-552.3854 59.0633,-552.3854"/>
</g>
<!-- A2 -->
<g id="node3" class="node">
<title>A2</title>
<polygon fill="#4b0082" stroke="#000000" points="150.7533,-466 74.0517,-466 74.0517,-430 150.7533,-430 150.7533,-466"/>
<text text-anchor="middle" x="112.4025" y="-451" font-family="Helvetica,sans-Serif" font-size="10.00" fill="#ffffff">Terminal</text>
<text text-anchor="middle" x="112.4025" y="-439" font-family="Helvetica,sans-Serif" font-size="10.00" fill="#ffffff">destination</text>
</g>
<!-- A0&#45;&gt;A2 -->
<g id="edge2" class="edge">
<title>A0&#45;&gt;A2</title>
<path fill="none" stroke="#000000" d="M210.3691,-687.7778C195.0081,-675.361 176.1035,-657.6511 164.4025,-638 133.3759,-585.893 120.3823,-514.8086 115.3264,-476.0395"/>
<polygon fill="#000000" stroke="#000000" points="114.1024,-466.0041 119.7801,-475.3857 114.7078,-470.9674 115.3132,-475.9306 115.3132,-475.9306 115.3132,-475.9306 114.7078,-470.9674 110.8463,-476.4754 114.1024,-466.0041 114.1024,-466.0041"/>
</g>
<!-- A3 -->
<g id="node4" class="node">
<title>A3</title>
<polygon fill="#4b0082" stroke="#000000" points="188.8016,-380 112.0034,-380 112.0034,-344 188.8016,-344 188.8016,-380"/>
<text text-anchor="middle" x="150.4025" y="-359" font-family="Helvetica,sans-Serif" font-size="10.00" fill="#ffffff">Gate origin</text>
</g>
<!-- A0&#45;&gt;A3 -->
<g id="edge3" class="edge">
<title>A0&#45;&gt;A3</title>
<path fill="none" stroke="#000000" d="M224.9206,-687.7979C217.627,-674.413 208.2055,-655.5689 202.4025,-638 187.1825,-591.9207 164.1935,-450.6394 154.7183,-390.0594"/>
<polygon fill="#000000" stroke="#000000" points="153.1623,-380.0584 159.1462,-389.2477 153.931,-384.9989 154.6997,-389.9395 154.6997,-389.9395 154.6997,-389.9395 153.931,-384.9989 150.2532,-390.6313 153.1623,-380.0584 153.1623,-380.0584"/>
</g>
<!-- A4 -->
<g id="node5" class="node">
<title>A4</title>
<polygon fill="#4b0082" stroke="#000000" points="244.5076,-294 150.2974,-294 150.2974,-258 244.5076,-258 244.5076,-294"/>
<text text-anchor="middle" x="197.4025" y="-273" font-family="Helvetica,sans-Serif" font-size="10.00" fill="#ffffff">Terminal origin</text>
</g>
<!-- A0&#45;&gt;A4 -->
<g id="edge4" class="edge">
<title>A0&#45;&gt;A4</title>
<path fill="none" stroke="#000000" d="M232.093,-687.9951C226.6493,-656.7659 216.4025,-590.4804 216.4025,-534 216.4025,-534 216.4025,-534 216.4025,-448 216.4025,-397.0353 208.0593,-338.087 202.4303,-304.1153"/>
<polygon fill="#000000" stroke="#000000" points="200.712,-294.0049 206.824,-303.1096 201.5498,-298.9342 202.3876,-303.8636 202.3876,-303.8636 202.3876,-303.8636 201.5498,-298.9342 197.9512,-304.6176 200.712,-294.0049 200.712,-294.0049"/>
</g>
<!-- A11 -->
<g id="node12" class="node">
<title>A11</title>
<polygon fill="#4b0082" stroke="#000000" points="293.2017,-208 207.6033,-208 207.6033,-172 293.2017,-172 293.2017,-208"/>
<text text-anchor="middle" x="250.4025" y="-187" font-family="Helvetica,sans-Serif" font-size="10.00" fill="#ffffff">Scheduled in</text>
</g>
<!-- A0&#45;&gt;A11 -->
<g id="edge14" class="edge">
<title>A0&#45;&gt;A11</title>
<path fill="none" stroke="#000000" d="M236.4737,-687.9376C239.8232,-630.4358 250.0736,-446.4632 253.4025,-294 253.7518,-278.0038 253.7552,-273.9961 253.4025,-258 253.1144,-244.9333 252.5153,-230.4646 251.9276,-218.2443"/>
<polygon fill="#000000" stroke="#000000" points="251.4223,-208.1758 256.418,-217.9376 251.673,-213.1695 251.9237,-218.1632 251.9237,-218.1632 251.9237,-218.1632 251.673,-213.1695 247.4293,-218.3888 251.4223,-208.1758 251.4223,-208.1758"/>
<text text-anchor="middle" x="260.7727" y="-222.8555" font-family="Helvetica,sans-Serif" font-size="10.00" fill="#000000">Time of arrival</text>
</g>
<!-- A12 -->
<g id="node13" class="node">
<title>A12</title>
<polygon fill="#4b0082" stroke="#000000" points="340.7486,-552 284.0564,-552 284.0564,-516 340.7486,-516 340.7486,-552"/>
<text text-anchor="middle" x="312.4025" y="-531" font-family="Helvetica,sans-Serif" font-size="10.00" fill="#ffffff">Status</text>
</g>
<!-- A0&#45;&gt;A12 -->
<g id="edge15" class="edge">
<title>A0&#45;&gt;A12</title>
<path fill="none" stroke="#000000" d="M244.4826,-687.9372C251.2597,-674.303 260.6478,-655.0876 268.4025,-638 280.0828,-612.2623 292.5618,-582.5302 301.2356,-561.4653"/>
<polygon fill="#000000" stroke="#000000" points="305.052,-552.1595 305.421,-563.1191 303.1548,-556.7855 301.2575,-561.4116 301.2575,-561.4116 301.2575,-561.4116 303.1548,-556.7855 297.0941,-559.7041 305.052,-552.1595 305.052,-552.1595"/>
<text text-anchor="middle" x="305.9945" y="-569.1372" font-family="Helvetica,sans-Serif" font-size="10.00" fill="#000000">Status of flight</text>
</g>
<!-- A13 -->
<g id="node14" class="node">
<title>A13</title>
<polygon fill="#4b0082" stroke="#000000" points="420.088,-638 320.717,-638 320.717,-602 420.088,-602 420.088,-638"/>
<text text-anchor="middle" x="370.4025" y="-617" font-family="Helvetica,sans-Serif" font-size="10.00" fill="#ffffff">Estimated in/out</text>
</g>
<!-- A0&#45;&gt;A13 -->
<g id="edge16" class="edge">
<title>A0&#45;&gt;A13</title>
<path fill="none" stroke="#000000" d="M263.7029,-687.9716C284.0433,-675.014 311.6513,-657.4267 333.6881,-643.3884"/>
<polygon fill="#000000" stroke="#000000" points="342.1393,-638.0047 336.1231,-647.1729 337.9223,-640.6911 333.7053,-643.3775 333.7053,-643.3775 333.7053,-643.3775 337.9223,-640.6911 331.2875,-639.5822 342.1393,-638.0047 342.1393,-638.0047"/>
<text text-anchor="middle" x="331.3929" y="-651.8723" font-family="Helvetica,sans-Serif" font-size="10.00" fill="#000000">Time of arrival/departure</text>
</g>
<!-- A14 -->
<g id="node15" class="node">
<title>A14</title>
<polygon fill="#ff00ff" stroke="#000000" points="492.5675,-638 438.2375,-638 438.2375,-602 492.5675,-602 492.5675,-638"/>
<text text-anchor="middle" x="465.4025" y="-617" font-family="Helvetica,sans-Serif" font-size="10.00" fill="#000000">Origin</text>
</g>
<!-- A0&#45;&gt;A14 -->
<g id="edge17" class="edge">
<title>A0&#45;&gt;A14</title>
<path fill="none" stroke="#000000" d="M289.6207,-689.0364C326.6893,-676.9751 376.9742,-659.707 428.7189,-638.067"/>
<polygon fill="#000000" stroke="#000000" points="438.0526,-634.122 430.5935,-642.1602 433.4471,-636.0686 428.8416,-638.0152 428.8416,-638.0152 428.8416,-638.0152 433.4471,-636.0686 427.0896,-633.8702 438.0526,-634.122 438.0526,-634.122"/>
<text text-anchor="middle" x="424.6472" y="-645.9643" font-family="Helvetica,sans-Serif" font-size="10.00" fill="#000000">Origin class API</text>
</g>
<!-- A5 -->
<g id="node6" class="node">
<title>A5</title>
<polygon fill="none" stroke="#000000" points="258.4815,-122 170.3235,-122 170.3235,-86 258.4815,-86 258.4815,-122"/>
<text text-anchor="middle" x="214.4025" y="-101" font-family="Helvetica,sans-Serif" font-size="10.00" fill="#000000">Signage Data</text>
</g>
<!-- A1&#45;&gt;A5 -->
<g id="edge5" class="edge">
<title>A1&#45;&gt;A5</title>
<path fill="none" stroke="#000000" d="M49.7058,-515.926C48.5597,-484.5926 46.4025,-418.1541 46.4025,-362 46.4025,-362 46.4025,-362 46.4025,-276 46.4025,-206.6425 117.1764,-154.8598 166.8518,-127.0563"/>
<polygon fill="#000000" stroke="#000000" points="175.8599,-122.145 169.2341,-130.8828 171.47,-124.5384 167.08,-126.9319 167.08,-126.9319 167.08,-126.9319 171.47,-124.5384 164.9259,-122.9809 175.8599,-122.145 175.8599,-122.145"/>
</g>
<!-- A2&#45;&gt;A5 -->
<g id="edge6" class="edge">
<title>A2&#45;&gt;A5</title>
<path fill="none" stroke="#000000" d="M109.3443,-429.8815C107.1991,-416.2189 104.5221,-396.9923 103.4025,-380 97.1446,-285.0232 108.301,-255.2731 154.4025,-172 162.9724,-156.5202 175.581,-141.5268 187.0308,-129.5759"/>
<polygon fill="#000000" stroke="#000000" points="194.3336,-122.1873 190.5045,-132.4629 190.8187,-125.7434 187.3039,-129.2996 187.3039,-129.2996 187.3039,-129.2996 190.8187,-125.7434 184.1034,-126.1363 194.3336,-122.1873 194.3336,-122.1873"/>
</g>
<!-- A3&#45;&gt;A5 -->
<g id="edge7" class="edge">
<title>A3&#45;&gt;A5</title>
<path fill="none" stroke="#000000" d="M145.4864,-343.7366C140.6128,-322.7881 134.7585,-287.5272 141.4025,-258 152.0567,-210.6506 179.0283,-160.7534 197.0324,-131.0131"/>
<polygon fill="#000000" stroke="#000000" points="202.304,-122.4555 200.8905,-133.33 199.6816,-126.7126 197.0591,-130.9697 197.0591,-130.9697 197.0591,-130.9697 199.6816,-126.7126 193.2277,-128.6095 202.304,-122.4555 202.304,-122.4555"/>
</g>
<!-- A4&#45;&gt;A5 -->
<g id="edge8" class="edge">
<title>A4&#45;&gt;A5</title>
<path fill="none" stroke="#000000" d="M196.3683,-257.8849C195.4596,-237.0724 194.7821,-201.936 198.4025,-172 200.0017,-158.7765 203.1736,-144.3834 206.2745,-132.2582"/>
<polygon fill="#000000" stroke="#000000" points="208.9398,-122.2729 210.7086,-133.0952 207.6503,-127.1037 206.3608,-131.9346 206.3608,-131.9346 206.3608,-131.9346 207.6503,-127.1037 202.013,-130.774 208.9398,-122.2729 208.9398,-122.2729"/>
</g>
<!-- A17 -->
<g id="node18" class="node">
<title>A17</title>
<polygon fill="none" stroke="#000000" points="383.9255,-122 276.8795,-122 276.8795,-86 389.9255,-86 389.9255,-116 383.9255,-122"/>
<polyline fill="none" stroke="#000000" points="383.9255,-122 383.9255,-116 "/>
<polyline fill="none" stroke="#000000" points="389.9255,-116 383.9255,-116 "/>
<text text-anchor="middle" x="333.4025" y="-107" font-family="Helvetica,sans-Serif" font-size="10.00" fill="#000000">Current flight info</text>
<text text-anchor="middle" x="333.4025" y="-95" font-family="Helvetica,sans-Serif" font-size="10.00" fill="#000000">in correct language</text>
</g>
<!-- A5&#45;&gt;A17 -->
<g id="edge24" class="edge">
<title>A5&#45;&gt;A17</title>
<path fill="none" stroke="#000000" stroke-dasharray="5,2" d="M258.5627,-104C264.6044,-104 270.6462,-104 276.6879,-104"/>
</g>
<!-- A18 -->
<g id="node19" class="node">
<title>A18</title>
<polygon fill="none" stroke="#000000" points="242.7986,-36 186.0064,-36 186.0064,0 242.7986,0 242.7986,-36"/>
<text text-anchor="middle" x="214.4025" y="-15" font-family="Helvetica,sans-Serif" font-size="10.00" fill="#000000">Cache</text>
</g>
<!-- A5&#45;&gt;A18 -->
<g id="edge25" class="edge">
<title>A5&#45;&gt;A18</title>
<path fill="none" stroke="#000000" d="M214.4025,-85.7616C214.4025,-74.3597 214.4025,-59.4342 214.4025,-46.494"/>
<polygon fill="#000000" stroke="#000000" points="214.4025,-36.2121 218.9026,-46.2121 214.4025,-41.2121 214.4026,-46.2121 214.4026,-46.2121 214.4026,-46.2121 214.4025,-41.2121 209.9026,-46.2121 214.4025,-36.2121 214.4025,-36.2121"/>
</g>
<!-- A6 -->
<g id="node7" class="node">
<title>A6</title>
<polygon fill="#ffd700" stroke="#000000" points="501.8616,-380 408.9434,-380 408.9434,-344 501.8616,-344 501.8616,-380"/>
<text text-anchor="middle" x="455.4025" y="-359" font-family="Helvetica,sans-Serif" font-size="10.00" fill="#000000">Country object</text>
</g>
<!-- A7 -->
<g id="node8" class="node">
<title>A7</title>
<polygon fill="#008000" stroke="#000000" points="483.8579,-294 410.9471,-294 410.9471,-258 483.8579,-258 483.8579,-294"/>
<text text-anchor="middle" x="447.4025" y="-273" font-family="Helvetica,sans-Serif" font-size="10.00" fill="#000000">Pycountry</text>
</g>
<!-- A6&#45;&gt;A7 -->
<g id="edge9" class="edge">
<title>A6&#45;&gt;A7</title>
<path fill="none" stroke="#000000" d="M453.7059,-343.7616C452.6453,-332.3597 451.2568,-317.4342 450.0531,-304.494"/>
<polygon fill="#000000" stroke="#000000" points="449.0966,-294.2121 454.5036,-303.7523 449.5598,-299.1906 450.023,-304.1691 450.023,-304.1691 450.023,-304.1691 449.5598,-299.1906 445.5423,-304.586 449.0966,-294.2121 449.0966,-294.2121"/>
</g>
<!-- A8 -->
<g id="node9" class="node">
<title>A8</title>
<polygon fill="#ffd700" stroke="#000000" points="474.876,-208 401.929,-208 401.929,-172 474.876,-172 474.876,-208"/>
<text text-anchor="middle" x="438.4025" y="-187" font-family="Helvetica,sans-Serif" font-size="10.00" fill="#000000">Language</text>
</g>
<!-- A7&#45;&gt;A8 -->
<g id="edge10" class="edge">
<title>A7&#45;&gt;A8</title>
<path fill="none" stroke="#000000" d="M445.4938,-257.7616C444.3006,-246.3597 442.7386,-231.4342 441.3844,-218.494"/>
<polygon fill="#000000" stroke="#000000" points="440.3084,-208.2121 445.8249,-217.6894 440.8289,-213.1849 441.3493,-218.1578 441.3493,-218.1578 441.3493,-218.1578 440.8289,-213.1849 436.8738,-218.6262 440.3084,-208.2121 440.3084,-208.2121"/>
<text text-anchor="middle" x="450.6015" y="-222.3601" font-family="Helvetica,sans-Serif" font-size="10.00" fill="#000000">Speaking language of country</text>
</g>
<!-- A8&#45;&gt;A5 -->
<g id="edge11" class="edge">
<title>A8&#45;&gt;A5</title>
<path fill="none" stroke="#000000" d="M401.9145,-175.9912C365.5707,-162.0378 309.3701,-140.4608 267.9676,-124.5652"/>
<polygon fill="#000000" stroke="#000000" points="258.5783,-120.9603 269.5268,-120.3436 263.2461,-122.7525 267.9139,-124.5446 267.9139,-124.5446 267.9139,-124.5446 263.2461,-122.7525 266.301,-128.7456 258.5783,-120.9603 258.5783,-120.9603"/>
</g>
<!-- A9 -->
<g id="node10" class="node">
<title>A9</title>
<polygon fill="#ff00ff" stroke="#000000" points="266.2274,-896 204.5776,-896 204.5776,-860 266.2274,-860 266.2274,-896"/>
<text text-anchor="middle" x="235.4025" y="-875" font-family="Helvetica,sans-Serif" font-size="10.00" fill="#000000">Arrivals</text>
</g>
<!-- A10 -->
<g id="node11" class="node">
<title>A10</title>
<polygon fill="#ff00ff" stroke="#000000" points="291.248,-810 179.557,-810 179.557,-774 291.248,-774 291.248,-810"/>
<text text-anchor="middle" x="235.4025" y="-789" font-family="Helvetica,sans-Serif" font-size="10.00" fill="#000000">Scheduled Arrivals</text>
</g>
<!-- A9&#45;&gt;A10 -->
<g id="edge12" class="edge">
<title>A9&#45;&gt;A10</title>
<path fill="none" stroke="#000000" d="M235.4025,-859.7616C235.4025,-848.3597 235.4025,-833.4342 235.4025,-820.494"/>
<polygon fill="#000000" stroke="#000000" points="235.4025,-810.2121 239.9026,-820.2121 235.4025,-815.2121 235.4026,-820.2121 235.4026,-820.2121 235.4026,-820.2121 235.4025,-815.2121 230.9026,-820.2121 235.4025,-810.2121 235.4025,-810.2121"/>
<text text-anchor="middle" x="243.8549" y="-825.3383" font-family="Helvetica,sans-Serif" font-size="10.00" fill="#000000">Arrivals class API</text>
</g>
<!-- A10&#45;&gt;A0 -->
<g id="edge13" class="edge">
<title>A10&#45;&gt;A0</title>
<path fill="none" stroke="#000000" d="M235.4025,-773.7616C235.4025,-762.3597 235.4025,-747.4342 235.4025,-734.494"/>
<polygon fill="#000000" stroke="#000000" points="235.4025,-724.2121 239.9026,-734.2121 235.4025,-729.2121 235.4026,-734.2121 235.4026,-734.2121 235.4026,-734.2121 235.4025,-729.2121 230.9026,-734.2121 235.4025,-724.2121 235.4025,-724.2121"/>
<text text-anchor="middle" x="243.8549" y="-739.3383" font-family="Helvetica,sans-Serif" font-size="10.00" fill="#000000">Scheduled arrivals class API</text>
</g>
<!-- A11&#45;&gt;A5 -->
<g id="edge21" class="edge">
<title>A11&#45;&gt;A5</title>
<path fill="none" stroke="#000000" d="M242.7678,-171.7616C237.8995,-160.1316 231.4965,-144.8357 226.0062,-131.72"/>
<polygon fill="#000000" stroke="#000000" points="222.0262,-122.2121 230.0386,-129.6989 223.9569,-126.8243 225.8876,-131.4365 225.8876,-131.4365 225.8876,-131.4365 223.9569,-126.8243 221.7366,-133.1742 222.0262,-122.2121 222.0262,-122.2121"/>
</g>
<!-- A12&#45;&gt;A5 -->
<g id="edge22" class="edge">
<title>A12&#45;&gt;A5</title>
<path fill="none" stroke="#000000" d="M313.9702,-515.9391C316.5487,-484.6253 321.4025,-418.2157 321.4025,-362 321.4025,-362 321.4025,-362 321.4025,-276 321.4025,-229.0127 326.834,-212.1361 302.4025,-172 291.4598,-154.0234 273.882,-139.0272 257.3031,-127.7325"/>
<polygon fill="#000000" stroke="#000000" points="248.7649,-122.1674 259.5997,-123.858 252.9537,-124.8976 257.1425,-127.6279 257.1425,-127.6279 257.1425,-127.6279 252.9537,-124.8976 254.6853,-131.3978 248.7649,-122.1674 248.7649,-122.1674"/>
</g>
<!-- A13&#45;&gt;A5 -->
<g id="edge23" class="edge">
<title>A13&#45;&gt;A5</title>
<path fill="none" stroke="#000000" d="M370.2283,-601.923C369.9418,-570.585 369.4025,-504.1398 369.4025,-448 369.4025,-448 369.4025,-448 369.4025,-276 369.4025,-225.6364 357.3358,-210.1037 324.4025,-172 308.2246,-153.2823 285.5931,-138.0793 265.0613,-126.8332"/>
<polygon fill="#000000" stroke="#000000" points="256.112,-122.102 267.0558,-122.7975 260.5323,-124.4389 264.9526,-126.7758 264.9526,-126.7758 264.9526,-126.7758 260.5323,-124.4389 262.8494,-130.754 256.112,-122.102 256.112,-122.102"/>
</g>
<!-- A15 -->
<g id="node16" class="node">
<title>A15</title>
<polygon fill="#4b0082" stroke="#000000" points="498.6938,-552 428.1112,-552 428.1112,-516 498.6938,-516 498.6938,-552"/>
<text text-anchor="middle" x="463.4025" y="-531" font-family="Helvetica,sans-Serif" font-size="10.00" fill="#ffffff">Code iata</text>
</g>
<!-- A14&#45;&gt;A15 -->
<g id="edge18" class="edge">
<title>A14&#45;&gt;A15</title>
<path fill="none" stroke="#000000" d="M464.9784,-601.7616C464.7132,-590.3597 464.3661,-575.4342 464.0652,-562.494"/>
<polygon fill="#000000" stroke="#000000" points="463.826,-552.2121 468.5574,-562.1047 463.9423,-557.2107 464.0586,-562.2094 464.0586,-562.2094 464.0586,-562.2094 463.9423,-557.2107 459.5598,-562.3141 463.826,-552.2121 463.826,-552.2121"/>
<text text-anchor="middle" x="472.6975" y="-567.1368" font-family="Helvetica,sans-Serif" font-size="10.00" fill="#000000">Orgin of plane</text>
</g>
<!-- A16 -->
<g id="node17" class="node">
<title>A16</title>
<polygon fill="#008000" stroke="#000000" points="501.3016,-466 419.5034,-466 419.5034,-430 501.3016,-430 501.3016,-466"/>
<text text-anchor="middle" x="460.4025" y="-451" font-family="Helvetica,sans-Serif" font-size="10.00" fill="#000000">Airportsdata</text>
<text text-anchor="middle" x="460.4025" y="-439" font-family="Helvetica,sans-Serif" font-size="10.00" fill="#000000">20220625</text>
</g>
<!-- A15&#45;&gt;A16 -->
<g id="edge19" class="edge">
<title>A15&#45;&gt;A16</title>
<path fill="none" stroke="#000000" d="M462.7663,-515.7616C462.3685,-504.3597 461.8479,-489.4342 461.3965,-476.494"/>
<polygon fill="#000000" stroke="#000000" points="461.0378,-466.2121 465.8838,-476.0491 461.2122,-471.2091 461.3865,-476.206 461.3865,-476.206 461.3865,-476.206 461.2122,-471.2091 456.8893,-476.3629 461.0378,-466.2121 461.0378,-466.2121"/>
<text text-anchor="middle" x="470.117" y="-481.0326" font-family="Helvetica,sans-Serif" font-size="10.00" fill="#000000">Airport code</text>
</g>
<!-- A16&#45;&gt;A6 -->
<g id="edge20" class="edge">
<title>A16&#45;&gt;A6</title>
<path fill="none" stroke="#000000" d="M459.3421,-429.7616C458.6792,-418.3597 457.8115,-403.4342 457.0591,-390.494"/>
<polygon fill="#000000" stroke="#000000" points="456.4613,-380.2121 461.5343,-389.934 456.7516,-385.2037 457.0418,-390.1952 457.0418,-390.1952 457.0418,-390.1952 456.7516,-385.2037 452.5494,-390.4565 456.4613,-380.2121 456.4613,-380.2121"/>
<text text-anchor="middle" x="465.9515" y="-394.8171" font-family="Helvetica,sans-Serif" font-size="10.00" fill="#000000">Country of airport</text>
</g>
</g>
</svg>
