<?xml version="1.0" encoding="UTF-8" standalone="no"?>
<!DOCTYPE svg PUBLIC "-//W3C//DTD SVG 1.1//EN"
 "http://www.w3.org/Graphics/SVG/1.1/DTD/svg11.dtd">
<!-- Generated by graphviz version 2.40.1 (20161225.0304)
 -->
<!-- Title: G Pages: 1 -->
<svg width="510pt" height="1076pt"
 viewBox="0.00 0.00 509.99 1076.00" xmlns="http://www.w3.org/2000/svg" xmlns:xlink="http://www.w3.org/1999/xlink">
<g id="graph0" class="graph" transform="scale(1 1) rotate(0) translate(4 1072)">
<title>G</title>
<polygon fill="#ffffff" stroke="transparent" points="-4,4 -4,-1072 505.9924,-1072 505.9924,4 -4,4"/>
<!-- A0 -->
<g id="node1" class="node">
<title>A0</title>
<polygon fill="#ff00ff" stroke="#000000" points="302.4574,-896 194.3476,-896 194.3476,-860 302.4574,-860 302.4574,-896"/>
<text text-anchor="middle" x="248.4025" y="-875" font-family="Helvetica,sans-Serif" font-size="10.00" fill="#000000">Arrival/Departures</text>
</g>
<!-- A1 -->
<g id="node2" class="node">
<title>A1</title>
<polygon fill="#4b0082" stroke="#000000" points="100.7077,-724 .0973,-724 .0973,-688 100.7077,-688 100.7077,-724"/>
<text text-anchor="middle" x="50.4025" y="-703" font-family="Helvetica,sans-Serif" font-size="10.00" fill="#ffffff">Gate destination</text>
</g>
<!-- A0&#45;&gt;A1 -->
<g id="edge1" class="edge">
<title>A0&#45;&gt;A1</title>
<path fill="none" stroke="#000000" d="M206.6791,-859.9925C181.9699,-848.0643 150.9873,-830.8 127.4025,-810 102.0793,-787.6669 79.9505,-755.7113 65.9933,-733.1291"/>
<polygon fill="#000000" stroke="#000000" points="60.7027,-724.3786 69.7275,-730.6078 63.2897,-728.6573 65.8767,-732.9361 65.8767,-732.9361 65.8767,-732.9361 63.2897,-728.6573 62.0258,-735.2644 60.7027,-724.3786 60.7027,-724.3786"/>
</g>
<!-- A2 -->
<g id="node3" class="node">
<title>A2</title>
<polygon fill="#4b0082" stroke="#000000" points="151.7533,-638 75.0517,-638 75.0517,-602 151.7533,-602 151.7533,-638"/>
<text text-anchor="middle" x="113.4025" y="-623" font-family="Helvetica,sans-Serif" font-size="10.00" fill="#ffffff">Terminal</text>
<text text-anchor="middle" x="113.4025" y="-611" font-family="Helvetica,sans-Serif" font-size="10.00" fill="#ffffff">destination</text>
</g>
<!-- A0&#45;&gt;A2 -->
<g id="edge2" class="edge">
<title>A0&#45;&gt;A2</title>
<path fill="none" stroke="#000000" d="M221.8087,-859.9891C205.4468,-847.6565 185.2248,-829.9611 172.4025,-810 139.2995,-758.4673 123.7474,-687.1616 117.315,-648.2022"/>
<polygon fill="#000000" stroke="#000000" points="115.7356,-638.1147 121.7284,-647.2982 116.5091,-643.0545 117.2825,-647.9943 117.2825,-647.9943 117.2825,-647.9943 116.5091,-643.0545 112.8367,-648.6905 115.7356,-638.1147 115.7356,-638.1147"/>
</g>
<!-- A3 -->
<g id="node4" class="node">
<title>A3</title>
<polygon fill="#4b0082" stroke="#000000" points="190.8016,-552 114.0034,-552 114.0034,-516 190.8016,-516 190.8016,-552"/>
<text text-anchor="middle" x="152.4025" y="-531" font-family="Helvetica,sans-Serif" font-size="10.00" fill="#ffffff">Gate origin</text>
</g>
<!-- A0&#45;&gt;A3 -->
<g id="edge3" class="edge">
<title>A0&#45;&gt;A3</title>
<path fill="none" stroke="#000000" d="M237.4076,-859.8223C229.7312,-846.4492 219.7592,-827.6091 213.4025,-810 181.8125,-722.4903 163.5563,-613.2215 156.2103,-562.418"/>
<polygon fill="#000000" stroke="#000000" points="154.7685,-552.2109 160.623,-561.4832 155.4679,-557.1617 156.1672,-562.1126 156.1672,-562.1126 156.1672,-562.1126 155.4679,-557.1617 151.7115,-562.742 154.7685,-552.2109 154.7685,-552.2109"/>
</g>
<!-- A4 -->
<g id="node5" class="node">
<title>A4</title>
<polygon fill="#4b0082" stroke="#000000" points="241.5076,-466 147.2974,-466 147.2974,-430 241.5076,-430 241.5076,-466"/>
<text text-anchor="middle" x="194.4025" y="-445" font-family="Helvetica,sans-Serif" font-size="10.00" fill="#ffffff">Terminal origin</text>
</g>
<!-- A0&#45;&gt;A4 -->
<g id="edge4" class="edge">
<title>A0&#45;&gt;A4</title>
<path fill="none" stroke="#000000" d="M244.6965,-859.7613C238.6678,-828.4537 227.4025,-762.4053 227.4025,-706 227.4025,-706 227.4025,-706 227.4025,-620 227.4025,-568.334 212.8636,-509.4767 203.0863,-475.7373"/>
<polygon fill="#000000" stroke="#000000" points="200.2263,-466.1086 207.3875,-474.4133 201.65,-470.9017 203.0738,-475.6947 203.0738,-475.6947 203.0738,-475.6947 201.65,-470.9017 198.76,-476.9761 200.2263,-466.1086 200.2263,-466.1086"/>
</g>
<!-- A13 -->
<g id="node14" class="node">
<title>A13</title>
<polygon fill="#4b0082" stroke="#000000" points="279.2017,-380 193.6033,-380 193.6033,-344 279.2017,-344 279.2017,-380"/>
<text text-anchor="middle" x="236.4025" y="-359" font-family="Helvetica,sans-Serif" font-size="10.00" fill="#ffffff">Scheduled in</text>
</g>
<!-- A0&#45;&gt;A13 -->
<g id="edge16" class="edge">
<title>A0&#45;&gt;A13</title>
<path fill="none" stroke="#000000" d="M252.1085,-859.7613C258.1372,-828.4537 269.4025,-762.4053 269.4025,-706 269.4025,-706 269.4025,-706 269.4025,-534 269.4025,-482.334 254.8636,-423.4767 245.0863,-389.7373"/>
<polygon fill="#000000" stroke="#000000" points="242.2263,-380.1086 249.3875,-388.4133 243.65,-384.9017 245.0738,-389.6947 245.0738,-389.6947 245.0738,-389.6947 243.65,-384.9017 240.76,-390.9761 242.2263,-380.1086 242.2263,-380.1086"/>
<text text-anchor="middle" x="255.49" y="-392.0777" font-family="Helvetica,sans-Serif" font-size="10.00" fill="#000000">Time of arrival</text>
</g>
<!-- A14 -->
<g id="node15" class="node">
<title>A14</title>
<polygon fill="#4b0082" stroke="#000000" points="302.7486,-294 246.0564,-294 246.0564,-258 302.7486,-258 302.7486,-294"/>
<text text-anchor="middle" x="274.4025" y="-273" font-family="Helvetica,sans-Serif" font-size="10.00" fill="#ffffff">Status</text>
</g>
<!-- A0&#45;&gt;A14 -->
<g id="edge17" class="edge">
<title>A0&#45;&gt;A14</title>
<path fill="none" stroke="#000000" d="M259.224,-859.6233C276.2568,-828.9093 307.4025,-764.7185 307.4025,-706 307.4025,-706 307.4025,-706 307.4025,-448 307.4025,-396.334 292.8636,-337.4767 283.0863,-303.7373"/>
<polygon fill="#000000" stroke="#000000" points="280.2263,-294.1086 287.3875,-302.4133 281.65,-298.9017 283.0738,-303.6947 283.0738,-303.6947 283.0738,-303.6947 281.65,-298.9017 278.76,-304.9761 280.2263,-294.1086 280.2263,-294.1086"/>
<text text-anchor="middle" x="293.49" y="-306.0777" font-family="Helvetica,sans-Serif" font-size="10.00" fill="#000000">Status of flight</text>
</g>
<!-- A15 -->
<g id="node16" class="node">
<title>A15</title>
<polygon fill="#4b0082" stroke="#000000" points="372.088,-208 272.717,-208 272.717,-172 372.088,-172 372.088,-208"/>
<text text-anchor="middle" x="322.4025" y="-187" font-family="Helvetica,sans-Serif" font-size="10.00" fill="#ffffff">Estimated in/out</text>
</g>
<!-- A0&#45;&gt;A15 -->
<g id="edge18" class="edge">
<title>A0&#45;&gt;A15</title>
<path fill="none" stroke="#000000" d="M267.1051,-859.8057C295.2921,-830.3377 345.4025,-769.0796 345.4025,-706 345.4025,-706 345.4025,-706 345.4025,-362 345.4025,-311.0285 335.3565,-252.3039 328.5432,-218.3377"/>
<polygon fill="#000000" stroke="#000000" points="326.4615,-208.2209 332.8847,-217.1088 327.4692,-213.1183 328.477,-218.0157 328.477,-218.0157 328.477,-218.0157 327.4692,-213.1183 324.0693,-218.9227 326.4615,-208.2209 326.4615,-208.2209"/>
<text text-anchor="middle" x="338.3936" y="-221.2716" font-family="Helvetica,sans-Serif" font-size="10.00" fill="#000000">Time of arrival/departure</text>
</g>
<!-- A16 -->
<g id="node17" class="node">
<title>A16</title>
<polygon fill="#ff00ff" stroke="#000000" points="433.5675,-810 379.2375,-810 379.2375,-774 433.5675,-774 433.5675,-810"/>
<text text-anchor="middle" x="406.4025" y="-789" font-family="Helvetica,sans-Serif" font-size="10.00" fill="#000000">Origin</text>
</g>
<!-- A0&#45;&gt;A16 -->
<g id="edge19" class="edge">
<title>A0&#45;&gt;A16</title>
<path fill="none" stroke="#000000" d="M281.5245,-859.9716C307.4271,-845.8727 343.3998,-826.2926 370.0861,-811.7671"/>
<polygon fill="#000000" stroke="#000000" points="379.1064,-806.8574 372.4745,-815.5906 374.7148,-809.2478 370.3232,-811.6381 370.3232,-811.6381 370.3232,-811.6381 374.7148,-809.2478 368.1718,-807.6857 379.1064,-806.8574 379.1064,-806.8574"/>
<text text-anchor="middle" x="367.2267" y="-819.9469" font-family="Helvetica,sans-Serif" font-size="10.00" fill="#000000">Origin class API</text>
</g>
<!-- A5 -->
<g id="node6" class="node">
<title>A5</title>
<polygon fill="none" stroke="#000000" points="228.4815,-122 140.3235,-122 140.3235,-86 228.4815,-86 228.4815,-122"/>
<text text-anchor="middle" x="184.4025" y="-101" font-family="Helvetica,sans-Serif" font-size="10.00" fill="#000000">Signage Data</text>
</g>
<!-- A1&#45;&gt;A5 -->
<g id="edge5" class="edge">
<title>A1&#45;&gt;A5</title>
<path fill="none" stroke="#000000" d="M49.1832,-687.9326C47.1776,-656.6092 43.4025,-590.1854 43.4025,-534 43.4025,-534 43.4025,-534 43.4025,-276 43.4025,-210.9774 104.4145,-157.0733 146.1703,-127.796"/>
<polygon fill="#000000" stroke="#000000" points="154.5,-122.1001 148.7855,-131.4593 150.3727,-124.9224 146.2454,-127.7447 146.2454,-127.7447 146.2454,-127.7447 150.3727,-124.9224 143.7053,-124.0302 154.5,-122.1001 154.5,-122.1001"/>
</g>
<!-- A2&#45;&gt;A5 -->
<g id="edge6" class="edge">
<title>A2&#45;&gt;A5</title>
<path fill="none" stroke="#000000" d="M107.7552,-601.8784C98.5686,-570.7453 81.4025,-504.9503 81.4025,-448 81.4025,-448 81.4025,-448 81.4025,-276 81.4025,-217.2814 126.133,-161.2579 156.6395,-129.8776"/>
<polygon fill="#000000" stroke="#000000" points="164.053,-122.4438 160.1779,-132.7022 160.5223,-125.9842 156.9916,-129.5245 156.9916,-129.5245 156.9916,-129.5245 160.5223,-125.9842 153.8052,-126.3469 164.053,-122.4438 164.053,-122.4438"/>
</g>
<!-- A3&#45;&gt;A5 -->
<g id="edge7" class="edge">
<title>A3&#45;&gt;A5</title>
<path fill="none" stroke="#000000" d="M146.5787,-515.8914C137.1051,-484.7777 119.4025,-419.0108 119.4025,-362 119.4025,-362 119.4025,-362 119.4025,-276 119.4025,-221.7272 148.0714,-163.6797 167.3298,-130.8089"/>
<polygon fill="#000000" stroke="#000000" points="172.4805,-122.2293 171.1915,-133.1192 169.9069,-126.5161 167.3333,-130.803 167.3333,-130.803 167.3333,-130.803 169.9069,-126.5161 163.4752,-128.4867 172.4805,-122.2293 172.4805,-122.2293"/>
</g>
<!-- A4&#45;&gt;A5 -->
<g id="edge8" class="edge">
<title>A4&#45;&gt;A5</title>
<path fill="none" stroke="#000000" d="M191.0049,-429.8966C188.6215,-416.2416 185.6471,-397.0181 184.4025,-380 177.7925,-289.6199 180.9489,-182.1463 183.0492,-132.1619"/>
<polygon fill="#000000" stroke="#000000" points="183.4902,-122.117 187.5472,-132.3048 183.2708,-127.1122 183.0515,-132.1074 183.0515,-132.1074 183.0515,-132.1074 183.2708,-127.1122 178.5558,-131.91 183.4902,-122.117 183.4902,-122.117"/>
</g>
<!-- A19 -->
<g id="node20" class="node">
<title>A19</title>
<polygon fill="none" stroke="#000000" points="353.9255,-122 246.8795,-122 246.8795,-86 359.9255,-86 359.9255,-116 353.9255,-122"/>
<polyline fill="none" stroke="#000000" points="353.9255,-122 353.9255,-116 "/>
<polyline fill="none" stroke="#000000" points="359.9255,-116 353.9255,-116 "/>
<text text-anchor="middle" x="303.4025" y="-107" font-family="Helvetica,sans-Serif" font-size="10.00" fill="#000000">Current flight info</text>
<text text-anchor="middle" x="303.4025" y="-95" font-family="Helvetica,sans-Serif" font-size="10.00" fill="#000000">in correct language</text>
</g>
<!-- A5&#45;&gt;A19 -->
<g id="edge26" class="edge">
<title>A5&#45;&gt;A19</title>
<path fill="none" stroke="#000000" stroke-dasharray="5,2" d="M228.5627,-104C234.6044,-104 240.6462,-104 246.6879,-104"/>
</g>
<!-- A20 -->
<g id="node21" class="node">
<title>A20</title>
<polygon fill="none" stroke="#000000" points="212.7986,-36 156.0064,-36 156.0064,0 212.7986,0 212.7986,-36"/>
<text text-anchor="middle" x="184.4025" y="-15" font-family="Helvetica,sans-Serif" font-size="10.00" fill="#000000">Cache</text>
</g>
<!-- A5&#45;&gt;A20 -->
<g id="edge27" class="edge">
<title>A5&#45;&gt;A20</title>
<path fill="none" stroke="#000000" d="M184.4025,-85.7616C184.4025,-74.3597 184.4025,-59.4342 184.4025,-46.494"/>
<polygon fill="#000000" stroke="#000000" points="184.4025,-36.2121 188.9026,-46.2121 184.4025,-41.2121 184.4026,-46.2121 184.4026,-46.2121 184.4026,-46.2121 184.4025,-41.2121 179.9026,-46.2121 184.4025,-36.2121 184.4025,-36.2121"/>
</g>
<!-- A6 -->
<g id="node7" class="node">
<title>A6</title>
<polygon fill="#ffd700" stroke="#000000" points="471.1288,-552 375.6762,-552 375.6762,-516 471.1288,-516 471.1288,-552"/>
<text text-anchor="middle" x="423.4025" y="-531" font-family="Helvetica,sans-Serif" font-size="10.00" fill="#000000">Airport Country</text>
</g>
<!-- A7 -->
<g id="node8" class="node">
<title>A7</title>
<polygon fill="#008000" stroke="#000000" points="462.8579,-466 389.9471,-466 389.9471,-430 462.8579,-430 462.8579,-466"/>
<text text-anchor="middle" x="426.4025" y="-445" font-family="Helvetica,sans-Serif" font-size="10.00" fill="#000000">Pycountry</text>
</g>
<!-- A6&#45;&gt;A7 -->
<g id="edge9" class="edge">
<title>A6&#45;&gt;A7</title>
<path fill="none" stroke="#000000" d="M424.0387,-515.7616C424.4365,-504.3597 424.9571,-489.4342 425.4085,-476.494"/>
<polygon fill="#000000" stroke="#000000" points="425.7672,-466.2121 429.9157,-476.3629 425.5928,-471.2091 425.4185,-476.206 425.4185,-476.206 425.4185,-476.206 425.5928,-471.2091 420.9212,-476.0491 425.7672,-466.2121 425.7672,-466.2121"/>
</g>
<!-- A8 -->
<g id="node9" class="node">
<title>A8</title>
<polygon fill="#ffd700" stroke="#000000" points="483.6578,-380 373.1472,-380 373.1472,-344 483.6578,-344 483.6578,-380"/>
<text text-anchor="middle" x="428.4025" y="-359" font-family="Helvetica,sans-Serif" font-size="10.00" fill="#000000">Country Language</text>
</g>
<!-- A7&#45;&gt;A8 -->
<g id="edge10" class="edge">
<title>A7&#45;&gt;A8</title>
<path fill="none" stroke="#000000" d="M426.8266,-429.7616C427.0918,-418.3597 427.4389,-403.4342 427.7398,-390.494"/>
<polygon fill="#000000" stroke="#000000" points="427.979,-380.2121 432.2452,-390.3141 427.8627,-385.2107 427.7464,-390.2094 427.7464,-390.2094 427.7464,-390.2094 427.8627,-385.2107 423.2476,-390.1047 427.979,-380.2121 427.979,-380.2121"/>
</g>
<!-- A9 -->
<g id="node10" class="node">
<title>A9</title>
<polygon fill="#008000" stroke="#000000" points="454.4025,-294 400.4025,-294 400.4025,-258 454.4025,-258 454.4025,-294"/>
<text text-anchor="middle" x="427.4025" y="-273" font-family="Helvetica,sans-Serif" font-size="10.00" fill="#000000">Babel</text>
</g>
<!-- A8&#45;&gt;A9 -->
<g id="edge11" class="edge">
<title>A8&#45;&gt;A9</title>
<path fill="none" stroke="#000000" d="M428.1904,-343.7616C428.0578,-332.3597 427.8843,-317.4342 427.7338,-304.494"/>
<polygon fill="#000000" stroke="#000000" points="427.6143,-294.2121 432.2303,-304.1591 427.6725,-299.2118 427.7306,-304.2114 427.7306,-304.2114 427.7306,-304.2114 427.6725,-299.2118 423.2309,-304.2638 427.6143,-294.2121 427.6143,-294.2121"/>
</g>
<!-- A10 -->
<g id="node11" class="node">
<title>A10</title>
<polygon fill="#ffd700" stroke="#000000" points="463.876,-208 390.929,-208 390.929,-172 463.876,-172 463.876,-208"/>
<text text-anchor="middle" x="427.4025" y="-187" font-family="Helvetica,sans-Serif" font-size="10.00" fill="#000000">Language</text>
</g>
<!-- A9&#45;&gt;A10 -->
<g id="edge12" class="edge">
<title>A9&#45;&gt;A10</title>
<path fill="none" stroke="#000000" d="M427.4025,-257.7616C427.4025,-246.3597 427.4025,-231.4342 427.4025,-218.494"/>
<polygon fill="#000000" stroke="#000000" points="427.4025,-208.2121 431.9026,-218.2121 427.4025,-213.2121 427.4026,-218.2121 427.4026,-218.2121 427.4026,-218.2121 427.4025,-213.2121 422.9026,-218.2121 427.4025,-208.2121 427.4025,-208.2121"/>
<text text-anchor="middle" x="435.8549" y="-223.3383" font-family="Helvetica,sans-Serif" font-size="10.00" fill="#000000">Speaking language of country</text>
</g>
<!-- A10&#45;&gt;A5 -->
<g id="edge13" class="edge">
<title>A10&#45;&gt;A5</title>
<path fill="none" stroke="#000000" d="M391.0456,-175.6162C387.7912,-174.3763 384.5412,-173.1553 381.4025,-172 354.7984,-162.2079 286.949,-138.9243 238.3173,-122.3353"/>
<polygon fill="#000000" stroke="#000000" points="228.5595,-119.0086 239.4767,-117.9763 233.2921,-120.6221 238.0246,-122.2356 238.0246,-122.2356 238.0246,-122.2356 233.2921,-120.6221 236.5725,-126.4949 228.5595,-119.0086 228.5595,-119.0086"/>
</g>
<!-- A11 -->
<g id="node12" class="node">
<title>A11</title>
<polygon fill="#ff00ff" stroke="#000000" points="279.2274,-1068 217.5776,-1068 217.5776,-1032 279.2274,-1032 279.2274,-1068"/>
<text text-anchor="middle" x="248.4025" y="-1047" font-family="Helvetica,sans-Serif" font-size="10.00" fill="#000000">Arrivals</text>
</g>
<!-- A12 -->
<g id="node13" class="node">
<title>A12</title>
<polygon fill="#ff00ff" stroke="#000000" points="304.248,-982 192.557,-982 192.557,-946 304.248,-946 304.248,-982"/>
<text text-anchor="middle" x="248.4025" y="-961" font-family="Helvetica,sans-Serif" font-size="10.00" fill="#000000">Scheduled Arrivals</text>
</g>
<!-- A11&#45;&gt;A12 -->
<g id="edge14" class="edge">
<title>A11&#45;&gt;A12</title>
<path fill="none" stroke="#000000" d="M248.4025,-1031.7616C248.4025,-1020.3597 248.4025,-1005.4342 248.4025,-992.494"/>
<polygon fill="#000000" stroke="#000000" points="248.4025,-982.2121 252.9026,-992.2121 248.4025,-987.2121 248.4026,-992.2121 248.4026,-992.2121 248.4026,-992.2121 248.4025,-987.2121 243.9026,-992.2121 248.4025,-982.2121 248.4025,-982.2121"/>
<text text-anchor="middle" x="256.8549" y="-997.3383" font-family="Helvetica,sans-Serif" font-size="10.00" fill="#000000">Arrivals class API</text>
</g>
<!-- A12&#45;&gt;A0 -->
<g id="edge15" class="edge">
<title>A12&#45;&gt;A0</title>
<path fill="none" stroke="#000000" d="M248.4025,-945.7616C248.4025,-934.3597 248.4025,-919.4342 248.4025,-906.494"/>
<polygon fill="#000000" stroke="#000000" points="248.4025,-896.2121 252.9026,-906.2121 248.4025,-901.2121 248.4026,-906.2121 248.4026,-906.2121 248.4026,-906.2121 248.4025,-901.2121 243.9026,-906.2121 248.4025,-896.2121 248.4025,-896.2121"/>
<text text-anchor="middle" x="256.8549" y="-911.3383" font-family="Helvetica,sans-Serif" font-size="10.00" fill="#000000">Scheduled arrivals class API</text>
</g>
<!-- A13&#45;&gt;A5 -->
<g id="edge23" class="edge">
<title>A13&#45;&gt;A5</title>
<path fill="none" stroke="#000000" d="M232.746,-343.8579C223.8137,-299.5401 200.8315,-185.5129 190.0918,-132.2275"/>
<polygon fill="#000000" stroke="#000000" points="188.055,-122.122 194.4421,-131.0358 189.0429,-127.0234 190.0308,-131.9249 190.0308,-131.9249 190.0308,-131.9249 189.0429,-127.0234 185.6196,-132.814 188.055,-122.122 188.055,-122.122"/>
</g>
<!-- A14&#45;&gt;A5 -->
<g id="edge24" class="edge">
<title>A14&#45;&gt;A5</title>
<path fill="none" stroke="#000000" d="M264.941,-257.9181C249.1412,-227.7229 217.2939,-166.859 198.7312,-131.3838"/>
<polygon fill="#000000" stroke="#000000" points="193.8722,-122.0977 202.4957,-128.8718 196.1904,-126.5279 198.5085,-130.9581 198.5085,-130.9581 198.5085,-130.9581 196.1904,-126.5279 194.5214,-133.0444 193.8722,-122.0977 193.8722,-122.0977"/>
</g>
<!-- A15&#45;&gt;A5 -->
<g id="edge25" class="edge">
<title>A15&#45;&gt;A5</title>
<path fill="none" stroke="#000000" d="M293.4732,-171.9716C272.6807,-159.014 244.4593,-141.4267 221.9327,-127.3884"/>
<polygon fill="#000000" stroke="#000000" points="213.2937,-122.0047 224.1607,-123.4746 217.5372,-124.6492 221.7806,-127.2937 221.7806,-127.2937 221.7806,-127.2937 217.5372,-124.6492 219.4006,-131.1128 213.2937,-122.0047 213.2937,-122.0047"/>
</g>
<!-- A17 -->
<g id="node18" class="node">
<title>A17</title>
<polygon fill="#4b0082" stroke="#000000" points="448.6938,-724 378.1112,-724 378.1112,-688 448.6938,-688 448.6938,-724"/>
<text text-anchor="middle" x="413.4025" y="-703" font-family="Helvetica,sans-Serif" font-size="10.00" fill="#ffffff">Code iata</text>
</g>
<!-- A16&#45;&gt;A17 -->
<g id="edge20" class="edge">
<title>A16&#45;&gt;A17</title>
<path fill="none" stroke="#000000" d="M407.887,-773.7616C408.8151,-762.3597 410.03,-747.4342 411.0832,-734.494"/>
<polygon fill="#000000" stroke="#000000" points="411.9201,-724.2121 415.5939,-734.5442 411.5144,-729.1956 411.1088,-734.1791 411.1088,-734.1791 411.1088,-734.1791 411.5144,-729.1956 406.6236,-733.814 411.9201,-724.2121 411.9201,-724.2121"/>
<text text-anchor="middle" x="418.8741" y="-739.9642" font-family="Helvetica,sans-Serif" font-size="10.00" fill="#000000">Orgin of plane</text>
</g>
<!-- A18 -->
<g id="node19" class="node">
<title>A18</title>
<polygon fill="#008000" stroke="#000000" points="459.3016,-638 377.5034,-638 377.5034,-602 459.3016,-602 459.3016,-638"/>
<text text-anchor="middle" x="418.4025" y="-623" font-family="Helvetica,sans-Serif" font-size="10.00" fill="#000000">Airportsdata</text>
<text text-anchor="middle" x="418.4025" y="-611" font-family="Helvetica,sans-Serif" font-size="10.00" fill="#000000">20220625</text>
</g>
<!-- A17&#45;&gt;A18 -->
<g id="edge21" class="edge">
<title>A17&#45;&gt;A18</title>
<path fill="none" stroke="#000000" d="M414.4629,-687.7616C415.1258,-676.3597 415.9935,-661.4342 416.7459,-648.494"/>
<polygon fill="#000000" stroke="#000000" points="417.3437,-638.2121 421.2556,-648.4565 417.0534,-643.2037 416.7632,-648.1952 416.7632,-648.1952 416.7632,-648.1952 417.0534,-643.2037 412.2707,-647.934 417.3437,-638.2121 417.3437,-638.2121"/>
<text text-anchor="middle" x="424.7297" y="-653.7983" font-family="Helvetica,sans-Serif" font-size="10.00" fill="#000000">Airport code</text>
</g>
<!-- A18&#45;&gt;A6 -->
<g id="edge22" class="edge">
<title>A18&#45;&gt;A6</title>
<path fill="none" stroke="#000000" d="M419.4629,-601.7616C420.1258,-590.3597 420.9935,-575.4342 421.7459,-562.494"/>
<polygon fill="#000000" stroke="#000000" points="422.3437,-552.2121 426.2556,-562.4565 422.0534,-557.2037 421.7632,-562.1952 421.7632,-562.1952 421.7632,-562.1952 422.0534,-557.2037 417.2707,-561.934 422.3437,-552.2121 422.3437,-552.2121"/>
<text text-anchor="middle" x="429.7297" y="-567.7983" font-family="Helvetica,sans-Serif" font-size="10.00" fill="#000000">Country of airport</text>
</g>
</g>
</svg>
